FFmpeg version SVN-r25716, Copyright (c) 2000-2010 the FFmpeg developers  built on Nov 10 2010 12:23:18 with gcc 4.1.2 20080704 (Red Hat 4.1.2-48)  configuration: --enable-libmp3lame --enable-shared --disable-mmx --arch=x86_64  libavutil     50.33. 0 / 50.33. 0  libavcore      0.12. 1 /  0.12. 1  libavcodec    52.94. 4 / 52.94. 4  libavformat   52.84. 0 / 52.84. 0  libavdevice   52. 2. 2 / 52. 2. 2  libavfilter    1.59. 0 /  1.59. 0  libswscale     0.12. 0 /  0.12. 0Input #0, avi, from '/RAID10/data/converted_video_files/47665.avi':  Duration: 00:00:08.35, start: 0.000000, bitrate: 188652 kb/s    Stream #0.0: Video: msvideo1, rgb555le, 1024x1024, 20 tbr, 20 tbn, 20 tbc[buffer @ 0xab00520] w:1024 h:1024 pixfmt:rgb555le[ffsink @ 0xaaffb40] auto-inserting filter 'auto-inserted scaler 0' between the filter 'src' and the filter 'out'[scale @ 0xaafea70] w:1024 h:1024 fmt:rgb555le -> w:1024 h:1024 fmt:yuv420p flags:0x4Output #0, flv, to '/RAID10/data/converted_video_files/47665.flv':  Metadata:    encoder         : Lavf52.84.0    Stream #0.0: Video: flv, yuv420p, 1024x1024, q=2-31, 600 kb/s, 1k tbn, 24 tbcStream mapping:  Stream #0.0 -> #0.0Press [q] to stop encodingframe=    8 fps=  0 q=12.3 size=     507kB time=0.37 bitrate=11111.2kbits/s    frame=   16 fps= 14 q=31.0 size=     539kB time=0.79 bitrate=5579.4kbits/s    frame=   26 fps= 15 q=31.0 size=     572kB time=1.29 bitrate=3627.0kbits/s    frame=   33 fps= 15 q=31.0 size=     576kB time=1.62 bitrate=2902.4kbits/s    frame=   44 fps= 16 q=31.0 size=     609kB time=2.21 bitrate=2259.3kbits/s    frame=   54 fps= 16 q=31.0 size=     641kB time=2.71 bitrate=1938.0kbits/s    frame=   62 fps= 16 q=31.0 size=     671kB time=3.08 bitrate=1784.1kbits/s    frame=   72 fps= 17 q=31.0 size=     677kB time=3.58 bitrate=1546.8kbits/s    frame=   81 fps= 17 q=31.0 size=     708kB time=4.04 bitrate=1434.6kbits/s    frame=   89 fps= 17 q=31.0 size=     738kB time=4.46 bitrate=1356.8kbits/s    frame=  100 fps= 17 q=31.0 size=     771kB time=5.00 bitrate=1263.5kbits/s    frame=  109 fps= 17 q=24.8 size=     803kB time=5.46 bitrate=1205.1kbits/s    frame=  118 fps= 17 q=31.0 size=     808kB time=5.88 bitrate=1126.4kbits/s    frame=  129 fps= 17 q=29.0 size=     840kB time=6.46 bitrate=1065.4kbits/s    frame=  138 fps= 17 q=27.2 size=     871kB time=6.88 bitrate=1038.2kbits/s    frame=  148 fps= 17 q=23.8 size=     903kB time=7.38 bitrate=1003.4kbits/s    frame=  156 fps= 17 q=18.6 size=     908kB time=7.79 bitrate= 954.3kbits/s    frame=  166 fps= 17 q=18.9 size=     941kB time=8.29 bitrate= 929.5kbits/s    frame=  167 fps= 17 q=18.3 Lsize=     941kB time=8.33 bitrate= 925.5kbits/s    video:939kB audio:0kB global headers:0kB muxing overhead 0.299841%